<?xml version="1.0" encoding="UTF-8"?>
<svg version="1.1" xmlns="http://www.w3.org/2000/svg" width="655" height="655">
<path d="M0 0 C1.12809082 0.19867676 2.25618164 0.39735352 3.41845703 0.60205078 C53.96071084 9.7115295 101.70795684 29.32034729 143 60 C143.86262451 60.63518555 143.86262451 60.63518555 144.74267578 61.28320312 C148.5627592 64.10659713 152.30610246 67.0135398 156 70 C156.54205078 70.43763672 157.08410156 70.87527344 157.64257812 71.32617188 C166.5327332 78.58869717 174.74201355 86.53686158 182.875 94.625 C183.36127869 95.10601166 183.84755737 95.58702332 184.34857178 96.08261108 C191.02860154 102.70659038 197.16881881 109.61513887 203 117 C203.90806396 118.12704346 203.90806396 118.12704346 204.83447266 119.27685547 C240.61920366 163.73605718 263.58550267 216.76844814 273 273 C273.16371094 273.92103516 273.32742188 274.84207031 273.49609375 275.79101562 C278.96632894 307.68565139 278.79522409 344.17052571 273 376 C272.80132324 377.12809082 272.60264648 378.25618164 272.39794922 379.41845703 C263.2884705 429.96071084 243.67965271 477.70795684 213 519 C212.57654297 519.57508301 212.15308594 520.15016602 211.71679688 520.74267578 C208.89340287 524.5627592 205.9864602 528.30610246 203 532 C202.56236328 532.54205078 202.12472656 533.08410156 201.67382812 533.64257812 C194.41130283 542.5327332 186.46313842 550.74201355 178.375 558.875 C177.89398834 559.36127869 177.41297668 559.84755737 176.91738892 560.34857178 C170.29340962 567.02860154 163.38486113 573.16881881 156 579 C155.2486377 579.60537598 154.49727539 580.21075195 153.72314453 580.83447266 C109.26394282 616.61920366 56.23155186 639.58550267 0 649 C-0.92103516 649.16371094 -1.84207031 649.32742188 -2.79101562 649.49609375 C-34.68565139 654.96632894 -71.17052571 654.79522409 -103 649 C-104.12809082 648.80132324 -105.25618164 648.60264648 -106.41845703 648.39794922 C-156.96071084 639.2884705 -204.70795684 619.67965271 -246 589 C-246.57508301 588.57654297 -247.15016602 588.15308594 -247.74267578 587.71679688 C-251.5627592 584.89340287 -255.30610246 581.9864602 -259 579 C-259.81307617 578.34354492 -259.81307617 578.34354492 -260.64257812 577.67382812 C-269.5327332 570.41130283 -277.74201355 562.46313842 -285.875 554.375 C-286.36127869 553.89398834 -286.84755737 553.41297668 -287.34857178 552.91738892 C-294.02860154 546.29340962 -300.16881881 539.38486113 -306 532 C-306.90806396 530.87295654 -306.90806396 530.87295654 -307.83447266 529.72314453 C-343.61920366 485.26394282 -366.58550267 432.23155186 -376 376 C-376.24556641 374.61844727 -376.24556641 374.61844727 -376.49609375 373.20898438 C-381.96632894 341.31434861 -381.79522409 304.82947429 -376 273 C-375.80132324 271.87190918 -375.60264648 270.74381836 -375.39794922 269.58154297 C-366.2884705 219.03928916 -346.67965271 171.29204316 -316 130 C-315.57654297 129.42491699 -315.15308594 128.84983398 -314.71679688 128.25732422 C-311.89340287 124.4372408 -308.9864602 120.69389754 -306 117 C-305.34354492 116.18692383 -305.34354492 116.18692383 -304.67382812 115.35742188 C-297.41130283 106.4672668 -289.46313842 98.25798645 -281.375 90.125 C-280.65348251 89.39558197 -280.65348251 89.39558197 -279.91738892 88.65142822 C-273.29340962 81.97139846 -266.38486113 75.83118119 -259 70 C-258.2486377 69.39462402 -257.49727539 68.78924805 -256.72314453 68.16552734 C-212.26394282 32.38079634 -159.23155186 9.41449733 -103 0 C-102.07896484 -0.16371094 -101.15792969 -0.32742188 -100.20898438 -0.49609375 C-68.31434861 -5.96632894 -31.82947429 -5.79522409 0 0 Z " fill="#F8F8F8" transform="translate(379,3)"/>
<path d="M0 0 C52.14 0 104.28 0 158 0 C158.12099405 75.77364237 158.12099405 75.77364237 158.14648438 107.49023438 C158.15235731 114.74894226 158.15841856 122.00764996 158.16479492 129.26635742 C158.16598179 130.63085334 158.16598179 130.63085334 158.16719264 132.02291483 C158.18021314 146.67687754 158.20384936 161.33080465 158.23145839 175.98474631 C158.25958952 191.04225108 158.27619249 206.09973731 158.28226548 221.15726727 C158.286366 230.43612091 158.29928056 239.71487395 158.3237494 248.99369659 C158.33970193 255.37089543 158.34437902 261.74804285 158.34050413 268.12526015 C158.33859726 271.79544072 158.34135875 275.46544646 158.35761642 279.13559532 C158.54190494 322.89584453 147.75648251 359.99598466 117 392 C116.14728516 392.96486328 116.14728516 392.96486328 115.27734375 393.94921875 C100.63414684 410.01553966 77.30393586 418.180323 57 424 C56.32662598 424.1949707 55.65325195 424.38994141 54.95947266 424.59082031 C42.87643972 427.87790808 15.38907584 431.69453792 4 426 C2.64746171 425.89345431 1.29266631 425.81508517 -0.0625 425.75 C-23.96901152 423.44534349 -46.33825915 409.50150104 -64 394 C-64.57363281 393.50935059 -65.14726562 393.01870117 -65.73828125 392.51318359 C-88.64437949 372.81996703 -104.63279637 344.47702673 -107 314 C-107.11004041 310.14419737 -107.09542035 306.29442438 -107.0625 302.4375 C-107.041875 298.993125 -107.02125 295.54875 -107 292 C-95.12 292 -83.24 292 -71 292 C-70.071875 298.125625 -70.071875 298.125625 -69.125 304.375 C-67.38489211 314.71055655 -64.90256762 324.31821115 -61.125 334.125 C-60.72684082 335.17091309 -60.32868164 336.21682617 -59.91845703 337.29443359 C-52.09559684 356.64703423 -36.97809012 371.36275073 -18.1875 380.09521484 C5.6104454 389.93842753 38.08072278 391.2209626 62.16894531 382.18652344 C85.35159282 372.54399433 101.98243677 355.68068057 112.4375 333.0625 C112.91413086 332.06404053 112.91413086 332.06404053 113.40039062 331.04541016 C119.41970637 317.30777827 119.4435388 302.41528974 119.36328125 287.71484375 C119.36276075 285.80066427 119.36328578 283.88648426 119.36479187 281.9723053 C119.36470287 277.98788321 119.35442213 274.0036665 119.33618164 270.01928711 C119.31348196 264.95420477 119.3129613 259.88942097 119.31969929 254.82430172 C119.32306656 250.8802279 119.31635794 246.93622011 119.30657005 242.99215889 C119.30276632 241.12615875 119.30154938 239.2601512 119.3031559 237.39414787 C119.30548703 221.21007934 117.93370035 206.54029657 113 191 C112.64035156 189.7728125 112.28070313 188.545625 111.91015625 187.28125 C104.7046409 163.79660739 88.78305037 142.70331588 67 131 C49.84914129 122.49500538 29.65334579 120.09494826 11 125 C2.54015996 128.21876267 -4.21628947 133.10773861 -11 139 C-11.845625 139.67804688 -12.69125 140.35609375 -13.5625 141.0546875 C-23.53136791 149.35194646 -29.15063775 159.77261402 -33 172 C-33.63414853 173.89048052 -34.26841904 175.78092176 -34.90551758 177.67041016 C-35.94943083 180.77615876 -36.97258274 183.88876154 -38 187 C-38.99 189.97 -39.98 192.94 -41 196 C-52.55 196 -64.1 196 -76 196 C-76 163.38004317 -63.31111963 137.28824896 -41 114 C-40.35546875 113.30390625 -39.7109375 112.6078125 -39.046875 111.890625 C-26.93523375 99.18817198 -10.3745897 89.09534303 7 86 C8.07677002 85.7527417 8.07677002 85.7527417 9.17529297 85.50048828 C15.59337566 84.06761991 21.68492556 83.68653467 28.25 83.75 C29.7649707 83.75906372 29.7649707 83.75906372 31.31054688 83.76831055 C39.05423124 83.8706254 46.38187119 84.56296482 54 86 C55.15886719 86.15984375 56.31773437 86.3196875 57.51171875 86.484375 C80.76116638 90.14103626 98.46953039 104.4359971 114.6652832 120.65820312 C115.88245781 121.87691101 115.88245781 121.87691101 117.1242218 123.12023926 C118.05273201 124.05072083 118.05273201 124.05072083 119 125 C119.01030746 124.28099518 119.02061493 123.56199036 119.03123474 122.82119751 C119.13083559 115.91265965 119.23351999 109.00417312 119.33933926 102.09572792 C119.39359036 98.54740097 119.44680813 94.99906598 119.49731445 91.45068359 C119.54645829 88.00110845 119.59877189 84.5515925 119.65294075 81.10209274 C119.68207081 79.20095523 119.70823603 77.29977296 119.73423767 75.39859009 C119.94048778 62.58296522 120.50691122 49.82030819 121 37 C81.07 37 41.14 37 0 37 C0 24.79 0 12.58 0 0 Z " fill="#0A0A0A" transform="translate(297,109)"/>
<path d="M0 0 C6.49082762 3.49506103 11.82480014 8.85576558 14 16 C14.24132134 18.82009244 14.38116051 21.49468233 14.375 24.3125 C14.37258301 25.45090332 14.37258301 25.45090332 14.37011719 26.61230469 C14.24253049 32.41875033 13.3612608 36.14484551 10 41 C9.401875 41.886875 8.80375 42.77375 8.1875 43.6875 C2.75842629 49.42680649 -2.84646846 52.63661881 -10.83984375 53.3359375 C-24.4131568 53.63589116 -24.4131568 53.63589116 -30 49 C-30.58910156 48.51402344 -31.17820312 48.02804687 -31.78515625 47.52734375 C-37.57936799 42.32362493 -41.38190452 36.37692006 -42.48046875 28.59765625 C-42.79823781 20.68778313 -41.79857247 14.40920444 -37 8 C-26.2932289 -3.51371525 -14.67312435 -6.10065385 0 0 Z " fill="#090909" transform="translate(343,283)"/>
</svg>
